<svg width="67" height="67" viewBox="0 0 67 67" fill="none" xmlns="http://www.w3.org/2000/svg">
<path d="M33.5 0C51.9725 0 67 15.0275 67 33.5C67 51.9725 51.9725 67 33.5 67C15.0275 67 0 51.9725 0 33.5C0 15.0275 15.0275 0 33.5 0ZM23.1512 35.4738L37.1096 49.432C37.654 49.9764 38.3686 50.25 39.0834 50.25C39.798 50.25 40.5128 49.9764 41.0571 49.432C42.1486 48.3405 42.1486 46.5761 41.0571 45.4846L29.0724 33.5L41.057 21.5154C42.1485 20.4239 42.1485 18.6595 41.057 17.568C39.9655 16.4765 38.2011 16.4765 37.1096 17.568L23.1512 31.5264C22.0597 32.6179 22.0597 34.3821 23.1512 35.4738Z" fill="white"/>
</svg>
