<svg width="260" height="280" viewBox="0 0 260 280" fill="none" xmlns="http://www.w3.org/2000/svg">
<path d="M176.5 -42C79.1747 -42 0 37.1747 0 134.5C0 231.825 79.1747 311 176.5 311C273.825 311 353 231.825 353 134.5C353 37.1747 273.825 -42 176.5 -42ZM231.024 144.899L157.482 218.44C154.614 221.308 150.849 222.75 147.083 222.75C143.318 222.75 139.552 221.308 136.684 218.44C130.933 212.689 130.933 203.394 136.684 197.643L199.828 134.5L136.685 71.3571C130.934 65.6064 130.934 56.3105 136.685 50.5598C142.436 44.8091 151.731 44.8091 157.482 50.5598L231.024 124.102C236.775 129.852 236.775 139.148 231.024 144.899Z" fill="white" />
</svg>
