<svg width="198" height="198" viewBox="0 0 198 198" fill="none" xmlns="http://www.w3.org/2000/svg">
<g clip-path="url(#clip0)">
<path d="M99.0002 198C153.677 198 198 153.677 198 99.0002C198 44.3239 153.677 0 99.0002 0C44.3239 0 0 44.3239 0 99.0002C0 153.677 44.3239 198 99.0002 198Z" fill="#E24C4B"/>
<path d="M198 99.0002C198 153.45 153.45 198 98.9996 198C67.4435 198 39.5998 183.769 21.6558 160.876C38.362 174.488 60.0184 182.532 83.5307 182.532C137.981 182.532 182.531 137.982 182.531 83.5317C182.531 60.0194 174.487 38.3631 160.875 21.6568C183.769 39.5999 198 67.4437 198 99.0002Z" fill="#D1403F"/>
<path d="M144.169 144.169C140.457 147.881 134.269 147.881 130.556 144.169L99.0003 112.613L67.4442 144.169C63.7318 147.881 57.544 147.881 53.8316 144.169C50.1193 140.457 50.1193 134.269 53.8316 130.556L85.3877 99.0002L53.8316 67.4441C50.1193 63.7317 50.1193 57.5439 53.8316 53.8315C57.544 50.1192 63.7318 50.1192 67.4442 53.8315L99.0003 85.3877L130.556 53.8315C134.269 50.1192 140.457 50.1192 144.169 53.8315C147.881 57.5439 147.881 63.7317 144.169 67.4441L112.613 99.0002L144.169 130.556C147.881 134.269 147.881 140.456 144.169 144.169Z" fill="white"/>
</g>
<defs>
<clipPath id="clip0">
<rect width="198" height="198" fill="white"/>
</clipPath>
</defs>
</svg>
