<svg width="198" height="198" viewBox="0 0 198 198" fill="none" xmlns="http://www.w3.org/2000/svg">
<path d="M176.289 179.45C145.992 204.183 51.3895 204.183 21.7102 179.45C-8.58728 154.718 -5.49575 48.9858 21.7102 21.1616C48.9162 -6.66259 149.083 -6.66259 176.289 21.1616C203.495 48.9858 206.587 154.718 176.289 179.45Z" fill="#7DFF92"/>
<g opacity="0.2">
<path opacity="0.2" d="M99.6187 136.169C72.4127 157.81 42.1152 168.939 13.6728 169.558C-7.35013 133.695 -3.02173 46.5129 21.7109 21.162C43.9703 -1.71556 113.84 -6.04396 154.031 8.17725C163.923 48.9862 143.519 100.924 99.6187 136.169Z" fill="white"/>
</g>
<path d="M84.7785 154.099C80.4501 154.099 76.1222 152.244 73.6489 148.535L39.0234 104.016C34.0768 97.8329 35.3137 89.1765 41.4967 84.2299C47.6798 79.2832 56.3361 80.5201 61.2828 86.7032L84.7785 117.001L136.717 49.6044C141.664 43.4213 150.32 42.1845 156.503 47.1311C162.686 52.0777 163.923 60.7341 158.977 66.9171L95.9082 148.535C92.8167 151.626 89.107 154.099 84.7785 154.099Z" fill="white"/>
</svg>
